RBDS012runT35_grf
version=1
nRows=24
nColumns=19
inDegrees=no
endheader
time	ground_force_r_vx	ground_force_r_vy	ground_force_r_vz	ground_force_r_px	ground_force_r_py	ground_force_r_pz	ground_force_r_mx	ground_force_r_my	ground_force_r_mz	ground_force_l_vx	ground_force_l_vy	ground_force_l_vz	ground_force_l_px	ground_force_l_py	ground_force_l_pz	ground_force_l_mx	ground_force_l_my	ground_force_l_mz
      0.00000000	      0.00000000	      0.00000000	      0.00000000	      0.00000000	      0.00000000	      0.00000000	      0.00000000	      0.00000000	      0.00000000	    -57.10642909	    100.99545656	      0.51757335	      2.33300567	      0.00000000	      0.97689485	     -0.00000000	     -3.45898278	     -0.00000000
      0.00100000	      0.00000000	      0.00000000	      0.00000000	      0.00000000	      0.00000000	      0.00000000	      0.00000000	      0.00000000	      0.00000000	    -57.16730398	    133.54080122	     -0.09914646	      2.33223730	      0.00000000	      0.97668002	     -0.00000000	     -3.20744134	     -0.00000000
      0.00200000	      0.00000000	      0.00000000	      0.00000000	      0.00000000	      0.00000000	      0.00000000	      0.00000000	      0.00000000	      0.00000000	    -57.22817888	    166.08614589	     -0.71586627	      2.33146893	      0.00000000	      0.97646518	     -0.00000000	     -2.95589989	     -0.00000000
      0.00300000	      0.00000000	      0.00000000	      0.00000000	      0.00000000	      0.00000000	      0.00000000	      0.00000000	      0.00000000	      0.00000000	    -57.28905378	    198.63149055	     -1.33258608	      2.33070057	      0.00000000	      0.97625034	     -0.00000000	     -2.70435844	     -0.00000000
      0.00400000	      0.00000000	      0.00000000	      0.00000000	      0.00000000	      0.00000000	      0.00000000	      0.00000000	      0.00000000	      0.00000000	    -57.46593381	    230.97987114	     -1.90281392	      2.32994808	      0.00000000	      0.97603470	     -0.00000000	     -2.45265651	     -0.00000000
      0.00500000	      0.00000000	      0.00000000	      0.00000000	      0.00000000	      0.00000000	      0.00000000	      0.00000000	      0.00000000	      0.00000000	    -57.70081642	    263.22976969	     -2.44979576	      2.32920354	      0.00000000	      0.97581866	     -0.00000000	     -2.20087436	     -0.00000000
      0.00600000	      0.00000000	      0.00000000	      0.00000000	      0.00000000	      0.00000000	      0.00000000	      0.00000000	      0.00000000	      0.00000000	    -57.93569903	    295.47966824	     -2.99677760	      2.32845900	      0.00000000	      0.97560261	     -0.00000000	     -1.94909220	     -0.00000000
      0.00700000	      0.00000000	      0.00000000	      0.00000000	      0.00000000	      0.00000000	      0.00000000	      0.00000000	      0.00000000	      0.00000000	    -58.26098323	    327.52513537	     -3.50628090	      2.32772287	      0.00000000	      0.97538646	     -0.00000000	     -1.69840276	     -0.00000000
      0.00800000	      0.00000000	      0.00000000	      0.00000000	      0.00000000	      0.00000000	      0.00000000	      0.00000000	      0.00000000	      0.00000000	    -58.76707062	    359.16173964	     -3.94082708	      2.32700355	      0.00000000	      0.97517011	     -0.00000000	     -1.44989877	     -0.00000000
      0.00900000	      0.00000000	      0.00000000	      0.00000000	      0.00000000	      0.00000000	      0.00000000	      0.00000000	      0.00000000	      0.00000000	    -59.27315801	    390.79834391	     -4.37537326	      2.32628423	      0.00000000	      0.97495375	     -0.00000000	     -1.20139478	     -0.00000000
      0.01000000	      0.00000000	      0.00000000	      0.00000000	      0.00000000	      0.00000000	      0.00000000	      0.00000000	      0.00000000	      0.00000000	    -59.77924539	    422.43494819	     -4.80991945	      2.32556491	      0.00000000	      0.97473740	     -0.00000000	     -0.95289079	     -0.00000000
      0.01100000	      0.00000000	      0.00000000	      0.00000000	      0.00000000	      0.00000000	      0.00000000	      0.00000000	      0.00000000	      0.00000000	    -60.64023971	    453.16952950	     -5.09325634	      2.32487006	      0.00000000	      0.97452161	     -0.00000000	     -0.71087042	     -0.00000000
      0.01200000	      0.00000000	      0.00000000	      0.00000000	      0.00000000	      0.00000000	      0.00000000	      0.00000000	      0.00000000	      0.00000000	    -61.50123402	    483.90411081	     -5.37659324	      2.32417522	      0.00000000	      0.97430583	     -0.00000000	     -0.46885005	     -0.00000000
      0.01300000	      0.00000000	      0.00000000	      0.00000000	      0.00000000	      0.00000000	      0.00000000	      0.00000000	      0.00000000	      0.00000000	    -62.36222834	    514.63869212	     -5.65993014	      2.32348037	      0.00000000	      0.97409004	     -0.00000000	     -0.22682968	     -0.00000000
      0.01400000	      0.00000000	      0.00000000	      0.00000000	      0.00000000	      0.00000000	      0.00000000	      0.00000000	      0.00000000	      0.00000000	    -63.50340422	    544.60394855	     -5.82052068	      2.32279982	      0.00000000	      0.97387521	     -0.00000000	      0.00901172	     -0.00000000
      0.01500000	      0.00000000	      0.00000000	      0.00000000	      0.00000000	      0.00000000	      0.00000000	      0.00000000	      0.00000000	      0.00000000	    -64.78467088	    574.18454255	     -5.91973805	      2.32212642	      0.00000000	      0.97366085	     -0.00000000	      0.24176362	     -0.00000000
      0.01600000	      0.00000000	      0.00000000	      0.00000000	      0.00000000	      0.00000000	      0.00000000	      0.00000000	      0.00000000	      0.00000000	    -66.06593754	    603.76513654	     -6.01895542	      2.32145301	      0.00000000	      0.97344650	     -0.00000000	      0.47451553	     -0.00000000
      0.01700000	      0.00000000	      0.00000000	      0.00000000	      0.00000000	      0.00000000	      0.00000000	      0.00000000	      0.00000000	      0.00000000	    -67.50165343	    632.89145063	     -6.04831409	      2.32078497	      0.00000000	      0.97323291	     -0.00000000	      0.70341587	      0.00000000
      0.01800000	      0.00000000	      0.00000000	      0.00000000	      0.00000000	      0.00000000	      0.00000000	      0.00000000	      0.00000000	      0.00000000	    -69.24626780	    661.10920491	     -5.93795535	      2.32012763	      0.00000000	      0.97302085	     -0.00000000	      0.92461308	      0.00000000
      0.01900000	      0.00000000	      0.00000000	      0.00000000	      0.00000000	      0.00000000	      0.00000000	      0.00000000	      0.00000000	      0.00000000	    -70.99088217	    689.32695920	     -5.82759661	      2.31947029	      0.00000000	      0.97280879	     -0.00000000	      1.14581030	      0.00000000
      0.02000000	      0.00000000	      0.00000000	      0.00000000	      0.00000000	      0.00000000	      0.00000000	      0.00000000	      0.00000000	      0.00000000	    -72.73549653	    717.54471348	     -5.71723787	      2.31881296	      0.00000000	      0.97259673	     -0.00000000	      1.36700751	      0.00000000
      0.02100000	      0.00000000	      0.00000000	      0.00000000	      0.00000000	      0.00000000	      0.00000000	      0.00000000	      0.00000000	      0.00000000	    -74.96142282	    744.23861775	     -5.38043091	      2.31816396	      0.00000000	      0.97238781	     -0.00000000	      1.57491070	      0.00000000
      0.02200000	      0.00000000	      0.00000000	      0.00000000	      0.00000000	      0.00000000	      0.00000000	      0.00000000	      0.00000000	      0.00000000	    -77.18734911	    770.93252203	     -5.04362396	      2.31751496	      0.00000000	      0.97217889	     -0.00000000	      1.78281390	      0.00000000
      0.02300000	      0.00000000	      0.00000000	      0.00000000	      0.00000000	      0.00000000	      0.00000000	      0.00000000	      0.00000000	      0.00000000	    -79.41327540	    797.62642630	     -4.70681700	      2.31686597	      0.00000000	      0.97196997	     -0.00000000	      1.99071709	      0.00000000
